<svg id="visual" viewBox="0 0 900 600" width="900" height="600" xmlns="http://www.w3.org/2000/svg" xmlns:xlink="http://www.w3.org/1999/xlink" version="1.1"><rect x="0" y="0" width="900" height="600" fill="#001220"></rect><defs><linearGradient id="grad1_0" x1="33.3%" y1="0%" x2="100%" y2="100%"><stop offset="20%" stop-color="#001220" stop-opacity="1"></stop><stop offset="80%" stop-color="#001220" stop-opacity="1"></stop></linearGradient></defs><defs><linearGradient id="grad2_0" x1="0%" y1="0%" x2="66.7%" y2="100%"><stop offset="20%" stop-color="#001220" stop-opacity="1"></stop><stop offset="80%" stop-color="#001220" stop-opacity="1"></stop></linearGradient></defs><g transform="translate(900, 0)"><path d="M0 540.8C-74.7 538.3 -149.3 535.7 -207 499.7C-264.6 463.6 -305.3 394 -334.5 334.5C-363.7 274.9 -381.4 225.5 -413.9 171.4C-446.4 117.4 -493.6 58.7 -540.8 0L0 0Z" fill="#f8c0c0"></path></g><g transform="translate(0, 600)"><path d="M0 -540.8C52.6 -494 105.1 -447.2 177.9 -429.6C250.8 -412 343.9 -423.6 382.4 -382.4C421 -341.3 404.9 -247.4 422.2 -174.9C439.5 -102.4 490.2 -51.2 540.8 0L0 0Z" fill="#f8c0c0"></path></g></svg>