<svg id="visual" viewBox="0 0 900 600" width="900" height="600" xmlns="http://www.w3.org/2000/svg" xmlns:xlink="http://www.w3.org/1999/xlink" version="1.1"><rect x="0" y="0" width="900" height="600" fill="#9ed0e9"></rect><path d="M0 517L11.5 515.7C23 514.3 46 511.7 69 502.7C92 493.7 115 478.3 138.2 469.2C161.3 460 184.7 457 207.8 470.3C231 483.7 254 513.3 277 530.8C300 548.3 323 553.7 346 541.5C369 529.3 392 499.7 415.2 487.8C438.3 476 461.7 482 484.8 497.2C508 512.3 531 536.7 554 533.3C577 530 600 499 623 492.3C646 485.7 669 503.3 692.2 500.3C715.3 497.3 738.7 473.7 761.8 467.3C785 461 808 472 831 482.7C854 493.3 877 503.7 888.5 508.8L900 514L900 601L888.5 601C877 601 854 601 831 601C808 601 785 601 761.8 601C738.7 601 715.3 601 692.2 601C669 601 646 601 623 601C600 601 577 601 554 601C531 601 508 601 484.8 601C461.7 601 438.3 601 415.2 601C392 601 369 601 346 601C323 601 300 601 277 601C254 601 231 601 207.8 601C184.7 601 161.3 601 138.2 601C115 601 92 601 69 601C46 601 23 601 11.5 601L0 601Z" fill="#021532" stroke-linecap="round" stroke-linejoin="miter"></path></svg>