<?xml version="1.0" standalone="no"?><svg xmlns="http://www.w3.org/2000/svg" viewBox="0 0 1440 320"><path fill="#fefaff" fill-opacity="1" d="M0,96L26.7,101.3C53.3,107,107,117,160,144C213.3,171,267,213,320,213.3C373.3,213,427,171,480,176C533.3,181,587,235,640,229.3C693.3,224,747,160,800,138.7C853.3,117,907,139,960,165.3C1013.3,192,1067,224,1120,245.3C1173.3,267,1227,277,1280,240C1333.3,203,1387,117,1413,74.7L1440,32L1440,0L1413.3,0C1386.7,0,1333,0,1280,0C1226.7,0,1173,0,1120,0C1066.7,0,1013,0,960,0C906.7,0,853,0,800,0C746.7,0,693,0,640,0C586.7,0,533,0,480,0C426.7,0,373,0,320,0C266.7,0,213,0,160,0C106.7,0,53,0,27,0L0,0Z"></path></svg>