<?xml version="1.0" standalone="no"?><svg xmlns="http://www.w3.org/2000/svg" viewBox="0 0 1440 320"><path fill="#0e1526" fill-opacity="1" d="M0,160L34.3,181.3C68.6,203,137,245,206,234.7C274.3,224,343,160,411,149.3C480,139,549,181,617,202.7C685.7,224,754,224,823,192C891.4,160,960,96,1029,85.3C1097.1,75,1166,117,1234,138.7C1302.9,160,1371,160,1406,160L1440,160L1440,320L1405.7,320C1371.4,320,1303,320,1234,320C1165.7,320,1097,320,1029,320C960,320,891,320,823,320C754.3,320,686,320,617,320C548.6,320,480,320,411,320C342.9,320,274,320,206,320C137.1,320,69,320,34,320L0,320Z"></path></svg>