<?xml version="1.0" standalone="no"?><svg xmlns="http://www.w3.org/2000/svg" viewBox="0 0 1440 320"><path fill="#EDC79B" fill-opacity="1" d="M0,160L21.8,160C43.6,160,87,160,131,154.7C174.5,149,218,139,262,149.3C305.5,160,349,192,393,170.7C436.4,149,480,75,524,48C567.3,21,611,43,655,74.7C698.2,107,742,149,785,144C829.1,139,873,85,916,74.7C960,64,1004,96,1047,101.3C1090.9,107,1135,85,1178,74.7C1221.8,64,1265,64,1309,85.3C1352.7,107,1396,149,1418,170.7L1440,192L1440,0L1418.2,0C1396.4,0,1353,0,1309,0C1265.5,0,1222,0,1178,0C1134.5,0,1091,0,1047,0C1003.6,0,960,0,916,0C872.7,0,829,0,785,0C741.8,0,698,0,655,0C610.9,0,567,0,524,0C480,0,436,0,393,0C349.1,0,305,0,262,0C218.2,0,175,0,131,0C87.3,0,44,0,22,0L0,0Z"></path></svg>